<?xml version="1.0" encoding="iso-8859-1"?>
<!-- Uploaded to: SVG Repo, www.svgrepo.com, Generator: SVG Repo Mixer Tools -->
<!DOCTYPE svg PUBLIC "-//W3C//DTD SVG 1.1//EN" "http://www.w3.org/Graphics/SVG/1.1/DTD/svg11.dtd">
<svg fill="#000000" version="1.1" id="Capa_1" xmlns="http://www.w3.org/2000/svg" xmlns:xlink="http://www.w3.org/1999/xlink" 
	 width="800px" height="800px" viewBox="0 0 72.803 72.803"
	 xml:space="preserve">
<g>
	<path d="M30.207,45.94h1.097v2.724h-1.097V45.94z M15.963,26.95h9.54v-1.401h-9.54V26.95z M15.963,32.28h9.54v-1.402h-9.54V32.28z
		 M30.207,43.212h1.097v-2.724h-1.097V43.212z M6.426,48.39h19.077v-1.4H6.426V48.39z M6.426,37.669h19.077v-1.404H6.426V37.669z
		 M30.207,37.761h1.097v-2.727h-1.097V37.761z M7.246,32.694h-0.82l2.677-7.569h0.918h0.918l2.677,7.569h-0.838h-0.833l-0.516-1.54
		H8.559l-0.497,1.54H7.246z M8.993,29.854h2.008l-1.005-3.037l0.002-0.007H9.995l0.002,0.007L8.993,29.854z M6.426,43.002h19.077
		v-1.4H6.426V43.002z M41.502,48.664h1.1V45.94h-1.1V48.664z M48.176,37.812l0.281,1.601l-3.116,0.533l1.12,6.28l3.116-0.536
		l0.292,1.643l1.683-0.297l-1.699-9.518L48.176,37.812z M30.207,32.313h1.097v-2.724h-1.097V32.313z M72.803,24.82v23.165
		c0,4.293-3.495,7.783-7.788,7.783H41.853c-2.123,0-4.045-0.858-5.451-2.24c-1.406,1.382-3.328,2.24-5.452,2.24H7.788
		C3.495,55.768,0,52.272,0,47.984V24.82c0-4.293,3.495-7.785,7.788-7.785H30.95c2.124,0,4.043,0.86,5.452,2.24
		c1.406-1.38,3.328-2.24,5.451-2.24h23.162C69.308,17.032,72.803,20.527,72.803,24.82z M70.467,24.82c0-3.011-2.44-5.45-5.452-5.45
		H49.577v7.3l-2.274-1.908l-2.274,1.908v-7.3h-2.432v2.044h-1.1v-2.008c-2.845,0.184-5.101,2.527-5.101,5.414
		c0-2.889-2.256-5.23-5.102-5.414v2.008h-1.097V19.37H7.778c-3.011,0-5.452,2.441-5.452,5.45v23.165
		c0,3.011,2.441,5.447,5.452,5.447h22.419v-2.044h1.097v2.007c2.846-0.183,5.102-2.527,5.102-5.41c0,2.888,2.256,5.228,5.101,5.41
		v-2.007h1.1v2.044h22.418c3.012,0,5.452-2.441,5.452-5.447V24.82L70.467,24.82z M41.502,26.864h1.1v-2.726h-1.1V26.864z
		 M56.263,25.705c-6.193,0-11.234,5.043-11.234,11.24c0,0.463,0.046,0.989,0.13,1.559l1.321-0.201
		c-0.076-0.496-0.119-0.968-0.119-1.36c0-5.458,4.441-9.903,9.897-9.903c5.459,0,9.897,4.442,9.897,9.903
		c0,0.393-0.041,0.862-0.114,1.36l1.319,0.201c0.082-0.57,0.127-1.096,0.127-1.559C67.497,30.75,62.456,25.705,56.263,25.705z
		 M64.349,37.812l-1.679-0.294l-1.697,9.516l1.684,0.299l0.294-1.643l3.116,0.536l1.12-6.28l-3.116-0.533L64.349,37.812z
		 M41.502,32.313h1.1v-2.724h-1.1V32.313z M30.207,26.864h1.097v-2.726h-1.097V26.864z M41.502,43.212h1.1v-2.724h-1.1V43.212z
		 M41.502,37.761h1.1v-2.727h-1.1V37.761z"/>
</g>
</svg>