<?xml version="1.0" encoding="iso-8859-1"?>
<!-- Uploaded to: SVG Repo, www.svgrepo.com, Generator: SVG Repo Mixer Tools -->
<!DOCTYPE svg PUBLIC "-//W3C//DTD SVG 1.1//EN" "http://www.w3.org/Graphics/SVG/1.1/DTD/svg11.dtd">
<svg fill="#000000" version="1.1" id="Capa_1" xmlns="http://www.w3.org/2000/svg" xmlns:xlink="http://www.w3.org/1999/xlink" 
	 width="800px" height="800px" viewBox="0 0 63.404 63.404"
	 xml:space="preserve">
<g>
	<path d="M33.885,20.173h-2.909l1.456-4.4L33.885,20.173z M61.834,10.278v3.139v36.57v3.139c0,5.666-4.614,10.278-10.275,10.278
		h-39.71c-5.666,0-10.277-4.612-10.277-10.278V13.417c0-3.856,2.16-7.184,5.312-8.941C8.737,1.778,11.839,0,15.352,0h6.073h9.109
		h21.024C57.225,0,61.834,4.611,61.834,10.278z M41.074,15.966h13.814v-2.028H41.074V15.966z M41.074,23.692h13.814v-2.029H41.074
		V23.692z M27.258,24.287h1.187h1.177l0.72-2.231h4.157l0.744,2.231h1.211h1.216l-3.878-10.963h-1.329h-1.328L27.258,24.287z
		 M27.258,31.495h27.631v-2.03H27.258V31.495z M27.258,39.221h27.631v-2.025H27.258V39.221z M27.258,47.026h27.631v-2.03H27.258
		V47.026z M6.943,49.987c0,0.434,0.066,0.849,0.129,1.264l3.149-0.926c-0.01-0.114-0.035-0.224-0.035-0.34
		c0-2.489,2.022-4.51,4.511-4.51c2.487,0,4.51,2.019,4.51,4.51c0,2.488-2.022,4.51-4.51,4.51c-1.713,0-3.187-0.97-3.951-2.377
		l-3.202,0.939c1.23,3.116,4.257,5.333,7.808,5.333h6.073V5.006V4.072V3.138V1.867h-6.073c-1.696,0-3.27,0.514-4.592,1.38
		c-0.535,0.35-1.023,0.762-1.462,1.222C8.893,4.892,8.541,5.357,8.23,5.856c-0.802,1.287-1.288,2.793-1.288,4.42v2.76l3.274-0.959
		c-0.009-0.115-0.034-0.225-0.034-0.341c0-2.488,2.022-4.511,4.51-4.511c2.488,0,4.511,2.023,4.511,4.511
		c0,2.487-2.022,4.509-4.511,4.509c-1.712,0-3.186-0.969-3.95-2.376L6.94,14.984v10.315l3.274-0.959
		c-0.009-0.115-0.034-0.225-0.034-0.341c0-2.487,2.022-4.511,4.51-4.511c2.489,0,4.511,2.023,4.511,4.511
		c0,2.488-2.022,4.51-4.511,4.51c-1.712,0-3.186-0.97-3.95-2.377l-3.802,1.116v10.899l3.274-0.961
		c-0.009-0.113-0.034-0.223-0.034-0.34c0-2.488,2.022-4.511,4.509-4.511c2.488,0,4.511,2.022,4.511,4.511
		c0,2.489-2.023,4.51-4.511,4.51c-1.712,0-3.186-0.969-3.95-2.377l-3.802,1.116v9.893H6.943z M14.959,37.745l-2.327,0.682
		c0.484,0.63,1.21,1.065,2.063,1.065c1.457,0,2.642-1.187,2.642-2.642s-1.188-2.642-2.642-2.642c-1.381,0-2.484,1.079-2.601,2.432
		l2.336-0.687L14.959,37.745z M14.959,24.898l-2.327,0.682c0.484,0.63,1.21,1.065,2.063,1.065c1.457,0,2.642-1.186,2.642-2.641
		c0-1.456-1.188-2.642-2.642-2.642c-1.381,0-2.484,1.079-2.601,2.432l2.336-0.686L14.959,24.898z M14.959,12.635l-2.327,0.682
		c0.484,0.631,1.21,1.065,2.063,1.065c1.457,0,2.642-1.187,2.642-2.642c0-1.456-1.188-2.642-2.642-2.642
		c-1.381,0-2.484,1.079-2.601,2.432l2.336-0.686L14.959,12.635z M14.959,50.884l-2.327,0.682c0.484,0.63,1.21,1.065,2.063,1.065
		c1.457,0,2.642-1.186,2.642-2.642c0-1.455-1.188-2.642-2.642-2.642c-1.381,0-2.484,1.079-2.601,2.432l2.336-0.687L14.959,50.884z
		 M3.439,14.067l1.636-0.481v-3.31c0-0.702,0.072-1.388,0.208-2.049c-1.135,1.434-1.843,3.221-1.843,5.188V14.067z M3.439,26.331
		l1.636-0.481V15.534l-1.636,0.481V26.331z M3.439,39.178l1.636-0.481V27.797l-1.636,0.481V39.178z M3.439,52.316l1.818-0.536
		c-0.104-0.584-0.183-1.18-0.183-1.795v-9.344l-1.636,0.481V52.316z M58.876,57.187c-1.866,1.897-4.453,3.079-7.317,3.079H30.535
		h-9.109h-6.073c-4.398,0-8.128-2.789-9.593-6.681L3.552,54.23c0.546,4.112,4.037,7.304,8.296,7.304h39.71
		C54.715,61.534,57.438,59.764,58.876,57.187z"/>
</g>
</svg>