<?xml version="1.0" encoding="iso-8859-1"?>
<!-- Uploaded to: SVG Repo, www.svgrepo.com, Generator: SVG Repo Mixer Tools -->
<!DOCTYPE svg PUBLIC "-//W3C//DTD SVG 1.1//EN" "http://www.w3.org/Graphics/SVG/1.1/DTD/svg11.dtd">
<svg fill="#000000" version="1.1" id="Capa_1" xmlns="http://www.w3.org/2000/svg" xmlns:xlink="http://www.w3.org/1999/xlink" 
	 width="800px" height="800px" viewBox="0 0 63.404 63.404"
	 xml:space="preserve">
<g>
	<path d="M51.559,0H30.535h-9.109h-6.073c-3.513,0-6.615,1.778-8.47,4.476c-3.151,1.757-5.312,5.085-5.312,8.941v39.709
		c0,5.666,4.616,10.278,10.277,10.278h39.71c5.666,0,10.275-4.612,10.275-10.278v-3.139v-36.57v-3.139
		C61.834,4.611,57.225,0,51.559,0z M41.357,16.179c6.957,0,12.607,5.659,12.607,12.615c0,0.519-0.048,1.11-0.142,1.752l-1.489-0.221
		c0.087-0.562,0.13-1.089,0.13-1.528c0-6.132-4.984-11.116-11.111-11.116s-11.112,4.986-11.112,11.116
		c0,0.439,0.046,0.969,0.129,1.528l-1.484,0.221c-0.094-0.642-0.143-1.231-0.143-1.752C28.745,21.838,34.397,16.179,41.357,16.179z
		 M53.616,32.167l-1.255,7.048l-3.495-0.602l-0.333,1.841l-1.886-0.331l1.899-10.685l1.882,0.329l-0.316,1.794L53.616,32.167z
		 M32.277,29.768l1.89-0.329l1.898,10.685l-1.887,0.331l-0.332-1.841l-3.499,0.602l-1.259-7.048l3.5-0.605L32.277,29.768z
		 M6.943,40.097l3.8-1.115c0.766,1.407,2.24,2.377,3.947,2.377c2.485,0,4.516-2.023,4.516-4.51s-2.025-4.511-4.516-4.511
		c-2.49,0-4.512,2.024-4.512,4.511c0,0.116,0.027,0.226,0.036,0.342l-3.272,0.958V27.25l3.8-1.115
		c0.766,1.407,2.24,2.377,3.947,2.377c2.485,0,4.516-2.022,4.516-4.51c0-2.488-2.025-4.511-4.516-4.511
		c-2.49,0-4.512,2.023-4.512,4.511c0,0.116,0.027,0.226,0.036,0.341l-3.272,0.959V14.987l3.8-1.116
		c0.766,1.407,2.24,2.377,3.947,2.377c2.485,0,4.516-2.022,4.516-4.51c0-2.487-2.025-4.511-4.516-4.511
		c-2.49,0-4.512,2.023-4.512,4.511c0,0.116,0.027,0.226,0.036,0.341l-3.272,0.959v-2.76c0-1.626,0.483-3.131,1.288-4.419
		c0.31-0.5,0.66-0.967,1.067-1.388C9.737,4.011,10.223,3.6,10.76,3.25c1.319-0.868,2.894-1.38,4.592-1.38h6.073V3.14v0.935v0.935
		v53.383h-6.073c-3.551,0-6.578-2.215-7.812-5.335l3.203-0.938c0.766,1.407,2.24,2.377,3.947,2.377c2.485,0,4.516-2.023,4.516-4.51
		s-2.025-4.512-4.516-4.512c-2.49,0-4.512,2.025-4.512,4.512c0,0.116,0.027,0.226,0.036,0.342l-3.147,0.924
		c-0.064-0.417-0.131-0.832-0.131-1.264v-9.893H6.943z M14.429,35.949l-2.336,0.685c0.114-1.351,1.217-2.432,2.597-2.432
		c1.456,0,2.645,1.188,2.645,2.644c0,1.456-1.189,2.642-2.645,2.642c-0.85,0-1.579-0.436-2.062-1.065l2.327-0.682L14.429,35.949z
		 M14.429,23.104l-2.336,0.684c0.114-1.352,1.217-2.432,2.597-2.432c1.456,0,2.645,1.188,2.645,2.643
		c0,1.456-1.189,2.642-2.645,2.642c-0.85,0-1.579-0.435-2.062-1.065l2.327-0.682L14.429,23.104z M14.429,10.841l-2.336,0.684
		c0.114-1.351,1.217-2.432,2.597-2.432c1.456,0,2.645,1.188,2.645,2.643c0,1.455-1.189,2.641-2.645,2.641
		c-0.85,0-1.579-0.435-2.062-1.065l2.327-0.682L14.429,10.841z M14.429,49.089l-2.336,0.684c0.114-1.35,1.217-2.431,2.597-2.431
		c1.456,0,2.645,1.188,2.645,2.644c0,1.455-1.189,2.642-2.645,2.642c-0.85,0-1.579-0.437-2.062-1.065l2.327-0.683L14.429,49.089z
		 M3.439,13.417c0-1.966,0.708-3.753,1.843-5.187c-0.14,0.663-0.21,1.347-0.21,2.048v3.31l-1.633,0.479V13.417z M3.439,16.016
		l1.633-0.481v10.315l-1.633,0.481V16.016z M3.439,28.278l1.633-0.481v10.899l-1.633,0.481V28.278z M3.439,41.125l1.633-0.48v9.343
		c0,0.613,0.074,1.209,0.179,1.798l-1.812,0.533V41.125z M51.559,61.534h-39.71c-4.255,0-7.75-3.191-8.299-7.304l2.208-0.646
		c1.464,3.892,5.197,6.681,9.591,6.681h6.078h9.107h21.021c2.869,0,5.452-1.182,7.317-3.079
		C57.438,59.764,54.715,61.534,51.559,61.534z"/>
</g>
</svg>